<svg fill="none" height="32" viewBox="0 0 38 32" width="38" xmlns="http://www.w3.org/2000/svg"><path d="m24.1951 6.2439c1.7171 0 3.122-1.40488 3.122-3.12195s-1.4049-3.12195-3.122-3.12195-3.1219 1.40488-3.1219 3.12195 1.4048 3.12195 3.1219 3.12195zm-16.39022 10.1463c-4.37073 0-7.80488 3.4342-7.80488 7.8049 0 4.3708 3.43415 7.8049 7.80488 7.8049 4.37072 0 7.80492-3.4341 7.80492-7.8049 0-4.3707-3.4342-7.8049-7.80492-7.8049zm0 13.2683c-2.96586 0-5.46342-2.4975-5.46342-5.4634 0-2.9658 2.49756-5.4634 5.46342-5.4634 2.96582 0 5.46342 2.4976 5.46342 5.4634 0 2.9659-2.4976 5.4634-5.46342 5.4634zm9.05362-15.6097 3.7464-3.7464 1.2488 1.2488c2.0292 2.0293 4.6829 3.2781 7.9609 3.2781v-3.122c-2.3414 0-4.2146-.9366-5.6195-2.34145l-2.9658-2.96585c-.7805-.62439-1.561-.93659-2.4976-.93659s-1.7171.3122-2.1854.93659l-4.3707 4.3707c-.6244.6244-.9366 1.4049-.9366 2.1854 0 .9366.3122 1.7171.9366 2.1854l4.9951 4.3707v7.8049h3.122v-9.6781zm12.8 2.3414c-4.3707 0-7.8048 3.4342-7.8048 7.8049 0 4.3708 3.4341 7.8049 7.8048 7.8049 4.3708 0 7.8049-3.4341 7.8049-7.8049 0-4.3707-3.4341-7.8049-7.8049-7.8049zm0 13.2683c-2.9658 0-5.4634-2.4975-5.4634-5.4634 0-2.9658 2.4976-5.4634 5.4634-5.4634 2.9659 0 5.4634 2.4976 5.4634 5.4634 0 2.9659-2.4975 5.4634-5.4634 5.4634z" fill="#ff0101"/></svg>